<svg width="72" height="72" viewBox="0 0 72 72" fill="none" xmlns="http://www.w3.org/2000/svg">
<g filter="url(#filter0_d_21_3163)">
<path d="M33.9042 0.0172226C33.7666 0.029733 33.3286 0.0735193 32.9345 0.104795C23.8444 0.924225 15.3298 5.82829 9.93705 13.3658C6.93412 17.5568 5.01349 22.3107 4.28778 27.3461C4.03128 29.1039 4 29.623 4 32.0063C4 34.3895 4.03128 34.9087 4.28778 36.6664C6.02698 48.6826 14.5791 58.7785 26.1779 62.5191C28.2549 63.1884 30.4446 63.645 32.9345 63.9202C33.9042 64.0266 38.0958 64.0266 39.0655 63.9202C43.3634 63.4449 47.0045 62.3815 50.5955 60.5487C51.146 60.2672 51.2524 60.1922 51.1773 60.1296C51.1273 60.0921 48.7812 56.9457 45.966 53.1426L40.8485 46.2306L34.436 36.7414C30.9075 31.5246 28.0047 27.2586 27.9797 27.2586C27.9546 27.2523 27.9296 31.4683 27.9171 36.6163C27.8983 45.6301 27.8921 45.9929 27.7795 46.2055C27.6168 46.5121 27.4917 46.6372 27.2289 46.7748C27.0287 46.8749 26.8536 46.8936 25.9089 46.8936H24.8266L24.5388 46.7122C24.3511 46.5934 24.2135 46.437 24.1196 46.2556L23.9883 45.9741L24.0008 33.4324L24.0196 20.8845L24.2135 20.6406C24.3136 20.5092 24.5263 20.3403 24.6764 20.259C24.9329 20.1339 25.033 20.1214 26.1153 20.1214C27.3916 20.1214 27.6043 20.1714 27.9359 20.5342C28.0297 20.6343 31.5019 25.8637 35.6559 32.1626C39.81 38.4616 45.4905 47.0625 48.2807 51.2848L53.3482 58.9599L53.6047 58.791C55.8757 57.3148 58.278 55.213 60.1799 53.0237C64.2276 48.3761 66.8364 42.7089 67.7122 36.6664C67.9687 34.9087 68 34.3895 68 32.0063C68 29.623 67.9687 29.1039 67.7122 27.3461C65.973 15.3299 57.4209 5.23405 45.8221 1.49345C43.7763 0.830397 41.5992 0.373768 39.1593 0.0985401C38.5588 0.0359882 34.4235 -0.0328189 33.9042 0.0172226ZM47.0045 19.3708C47.3048 19.5209 47.5488 19.8086 47.6364 20.1089C47.6864 20.2715 47.6989 23.7494 47.6864 31.5872L47.6676 42.834L45.6845 39.794L43.695 36.754V28.5784C43.695 23.2928 43.72 20.3216 43.7576 20.1777C43.8577 19.8274 44.0766 19.5522 44.3769 19.3895C44.6334 19.2582 44.7273 19.2457 45.7095 19.2457C46.6354 19.2457 46.798 19.2582 47.0045 19.3708Z" fill="#7B4AE2" fill-opacity="0.5"/>
</g>
<defs>
<filter id="filter0_d_21_3163" x="0" y="0" width="72" height="72" filterUnits="userSpaceOnUse" color-interpolation-filters="sRGB">
<feFlood flood-opacity="0" result="BackgroundImageFix"/>
<feColorMatrix in="SourceAlpha" type="matrix" values="0 0 0 0 0 0 0 0 0 0 0 0 0 0 0 0 0 0 127 0" result="hardAlpha"/>
<feOffset dy="4"/>
<feGaussianBlur stdDeviation="2"/>
<feComposite in2="hardAlpha" operator="out"/>
<feColorMatrix type="matrix" values="0 0 0 0 0 0 0 0 0 0 0 0 0 0 0 0 0 0 0.25 0"/>
<feBlend mode="normal" in2="BackgroundImageFix" result="effect1_dropShadow_21_3163"/>
<feBlend mode="normal" in="SourceGraphic" in2="effect1_dropShadow_21_3163" result="shape"/>
</filter>
</defs>
</svg>
